<?xml version="1.0" encoding="UTF-8"?>
<svg width="208px" height="232px" viewBox="0 0 208 232" version="1.1" xmlns="http://www.w3.org/2000/svg" xmlns:xlink="http://www.w3.org/1999/xlink">
    <!-- Generator: Sketch 49.3 (51167) - http://www.bohemiancoding.com/sketch -->
    <title>circular-arrow</title>
    <desc>Created with Sketch.</desc>
    <defs></defs>
    <g id="Log-in" stroke="none" stroke-width="1" fill="none" fill-rule="evenodd" opacity="0.785948822">
        <g id="Need-to-chat" transform="translate(-105.000000, -177.000000)" fill="#9B9B9B" fill-rule="nonzero">
            <g id="circular-arrow" transform="translate(105.000000, 177.000000)">
                <path d="M189.540143,44.7639173 C170.109319,16.7280447 138.109179,-0.0048620578 103.931153,1.05974172e-06 C46.469411,0.062140895 -0.0622557064,46.5616498 6.25224134e-05,103.858901 C0.0580455701,157.218647 40.6992849,201.832888 93.9607785,207.004543 L76.3420604,224.567962 C74.6199097,226.226826 74.5722227,228.96314 76.2358485,230.680361 C77.8994743,232.397581 80.6436439,232.445132 82.3657946,230.786268 C82.3899994,230.763214 90.5986649,222.578047 106.991791,206.230767 C107.396589,205.828209 107.716308,205.348922 107.932525,204.821544 C108.370921,203.764086 108.370921,202.576404 107.932525,201.518946 C107.716308,200.991568 107.396589,200.512281 106.991791,200.109723 L82.4720066,175.660129 C80.7498559,174.001266 78.0051443,174.048816 76.3420604,175.766037 C74.7196189,177.441111 74.7196189,180.096914 76.3420604,181.772528 L92.8157488,198.199058 C40.534548,192.060723 3.14306885,144.823101 9.29902606,92.6915617 C15.4549833,40.5600224 62.828217,3.27504055 115.109418,9.41391593 C167.390618,15.5527913 204.78264,62.789873 198.62614,114.921412 C195.424609,142.034373 180.685535,166.465055 158.164269,181.988666 C156.164125,183.300627 155.609764,185.981286 156.925491,187.975704 C158.241761,189.970123 160.929573,190.522897 162.929717,189.210936 C210.370146,156.519979 222.208442,91.901035 189.540143,44.7639173 Z" id="Shape"></path>
            </g>
        </g>
    </g>
</svg>