<?xml version="1.0" encoding="iso-8859-1"?>
<!-- Generator: Adobe Illustrator 19.0.0, SVG Export Plug-In . SVG Version: 6.00 Build 0)  -->
<svg xmlns="http://www.w3.org/2000/svg" xmlns:xlink="http://www.w3.org/1999/xlink" version="1.1" id="Capa_1" x="0px" y="0px" viewBox="0 0 512 512" style="enable-background:new 0 0 512 512;" xml:space="preserve" width="512px" height="512px">
<g>
	<g>
		<path d="M152.152,271.671c-8.787-8.787-23.033-8.787-31.82,0l-31.82,31.82c-8.787,8.787-8.787,23.033,0,31.82    c8.787,8.785,23.033,8.785,31.82,0l31.82-31.82C160.937,294.704,160.937,280.458,152.152,271.671z" fill="#deb6bd"/>
	</g>
</g>
<g>
	<g>
		<path d="M205.184,324.704c-8.787-8.787-23.033-8.787-31.82,0l-31.82,31.82c-8.787,8.787-8.787,23.033,0,31.82    c8.787,8.787,23.033,8.787,31.82,0l31.82-31.82C213.972,347.737,213.972,333.491,205.184,324.704z" fill="#deb6bd"/>
	</g>
</g>
<g>
	<g>
		<path d="M258.217,377.737c-8.787-8.787-23.033-8.787-31.82,0l-31.82,31.82c-8.787,8.787-8.787,23.033,0,31.82    c8.787,8.787,23.033,8.787,31.82,0l31.82-31.82C267.004,400.769,267.004,386.524,258.217,377.737z" fill="#deb6bd"/>
	</g>
</g>
<g>
	<g>
		<path d="M311.25,430.769c-8.787-8.787-23.033-8.787-31.82,0l-31.82,31.82c-8.787,8.787-8.787,23.033,0,31.82s23.033,8.787,31.82,0    l31.82-31.82C320.037,453.802,320.037,439.556,311.25,430.769z" fill="#deb6bd"/>
	</g>
</g>
<g>
	<g>
		<path d="M468.417,54.583c-58.11-58.11-152.325-58.11-210.435,0l-75.616,74.416c-12.94,12.94-12.94,33.728-0.002,46.668    c10.397,10.397,27.367,13.365,40.307,5.092l26.516-23.123l68.095-59.183l158.573,158.57    C526.412,198.565,523.932,110.098,468.417,54.583z" fill="#deb6bd"/>
	</g>
</g>
<g>
	<g>
		<path d="M459.912,282.462L315.849,138.403l-46.981,40.833l-28.158,24.555l-1.878,1.201c-9.721,6.214-21.026,9.499-32.695,9.5    c-16.73,0.001-33.126-6.798-44.984-18.655c-24.562-24.566-24.561-64.533,0.001-89.095l65.269-64.234    C167.936,12.675,94.536,22.214,45.601,71.149c-60.801,60.801-60.801,159.379,0,220.18l6.322,6.322l44.728-44.726    c19.951-19.95,52.774-23.503,74.042-4.962c12.195,10.632,18.135,25.463,17.963,40.236c13.651-0.159,27.35,4.9,37.742,15.291    c10.391,10.391,15.45,24.091,15.291,37.742c13.651-0.159,27.35,4.9,37.742,15.291c10.391,10.391,15.45,24.091,15.291,37.742    c13.651-0.159,27.35,4.9,37.742,15.291c4.768,4.768,8.315,10.276,10.86,16.115c3.77-0.969,7.401-2.556,10.353-5.508    c8.789-8.789,8.787-23.035,0-31.82l-5.303-5.304l-74.246-74.246c-5.858-5.858-5.858-15.355,0-21.213    c5.858-5.859,15.355-5.858,21.213,0l74.246,74.246l5.305,5.304c8.785,8.785,23.033,8.785,31.82,0    c8.787-8.789,8.785-23.035,0-31.82l-5.305-5.305l-74.246-74.246c-5.858-5.857-5.858-15.355,0-21.213    c5.859-5.859,15.355-5.858,21.213,0l74.246,74.246l5.305,5.303c8.785,8.787,23.033,8.787,31.82,0    C468.473,305.367,468.52,291.261,459.912,282.462z" fill="#deb6bd"/>
	</g>
</g>
<g>
</g>
<g>
</g>
<g>
</g>
<g>
</g>
<g>
</g>
<g>
</g>
<g>
</g>
<g>
</g>
<g>
</g>
<g>
</g>
<g>
</g>
<g>
</g>
<g>
</g>
<g>
</g>
<g>
</g>
</svg>
