<?xml version="1.0" encoding="UTF-8"?>
<svg width="129px" height="134px" viewBox="0 0 129 134" version="1.1" xmlns="http://www.w3.org/2000/svg" xmlns:xlink="http://www.w3.org/1999/xlink">
    <!-- Generator: Sketch 49.3 (51167) - http://www.bohemiancoding.com/sketch -->
    <title>classmates</title>
    <desc>Created with Sketch.</desc>
    <defs></defs>
    <g id="Log-in" stroke="none" stroke-width="1" fill="none" fill-rule="evenodd">
        <g id="Log-in-page-" transform="translate(-140.000000, -187.000000)" fill="#000000" fill-rule="nonzero">
            <g id="classmates" transform="translate(140.000000, 187.000000)">
                <circle id="Oval" cx="34" cy="12" r="11"></circle>
                <path d="M67.6760997,72.8664875 C67.5895011,72.6282693 58.9306907,48.9115934 55.116929,37.8022988 C52.6566329,30.6344084 48.5312215,27 42.8549312,27 C42.5619698,27 42.2787476,27 42,27 C43.4155849,28.3758154 44.4953041,30.0957824 45.0978094,32.0260348 C47.8581738,32.9825968 49.8462573,35.6093212 49.8462573,38.6940359 L49.8462573,54.7511012 C53.6292224,65.3230873 57.6554008,76.3504285 57.714888,76.5124907 C58.7206429,79.2662297 61.7652824,80.6826265 64.5164341,79.675733 C67.2670594,78.6691031 68.6818546,75.62049 67.6760997,72.8664875 Z" id="Shape"></path>
                <path d="M25.1453244,27 C19.4697734,27 15.344062,30.6344015 12.8834809,37.8020147 C9.06994853,48.9107611 0.411061213,72.6281824 0.32393537,72.8664001 C-0.681828504,75.6201339 0.732716134,78.6690047 3.48336583,79.6756327 C6.23190977,80.6822607 9.27894526,79.2679747 10.2849724,76.5123963 C10.3441969,76.3498075 14.370411,65.3227508 18.1534098,54.7510483 L18.1534098,38.6940136 C18.1534098,35.6095683 20.1417742,32.9828489 22.9018998,32.0260252 C23.5044105,30.0957765 24.5844025,28.3758128 26,27 C25.7217764,27 25.4382884,27 25.1453244,27 Z" id="Shape"></path>
                <path d="M54.9454832,85.9312213 C52.7284001,74.4997221 51.1847485,66.556877 50.105686,61.0020939 L50.105686,62.2366937 C50.105686,66.1009361 46.9583765,69.2443629 43.0899452,69.2443629 L24.9099163,69.2443629 C21.041223,69.2443629 17.8941756,66.1006744 17.8941756,62.2366937 L17.8941756,61 C16.814851,66.5563535 15.2709373,74.5002456 13.0543783,85.931483 C12.7027266,87.7453004 14.1022586,89.421184 15.9336253,89.421184 C17.0705977,89.421184 18.435017,89.421184 19.9621604,89.421184 L19.9621604,127.672054 C19.9621604,131.16699 22.7984336,134 26.2973948,134 C29.7963559,134 32.6326291,131.16699 32.6326291,127.672054 L32.6326291,89.4209222 C33.5432027,89.4209222 34.4571829,89.4209222 35.3677565,89.4209222 L35.3677565,127.671793 C35.3677565,131.166728 38.2040297,133.999738 41.7029909,133.999738 C45.201952,133.999738 48.0382252,131.166728 48.0382252,127.671793 L48.0382252,89.4209222 C49.5656306,89.4209222 50.9297879,89.4209222 52.0664982,89.4209222 C53.9067741,89.4209222 55.2966109,87.7429448 54.9454832,85.9312213 Z" id="Shape"></path>
                <path d="M42.9621529,34.9344065 L41.8719483,34.9344065 C41.8719483,33.5134004 41.4976103,32.1796284 40.8455544,31.0247518 C39.4908073,28.6238582 36.9308934,27 34.0002583,27 C31.0696233,27 28.5097094,28.6238582 27.154704,31.0247518 C26.5029064,32.1796284 26.12831,33.5134004 26.12831,34.9344065 L25.0381055,34.9344065 C23.3601722,34.9344065 22,36.3054156 22,37.9967176 L22,61.9376889 C22,63.6289908 23.3601722,65 25.0381055,65 L42.9618945,65 C44.6398278,65 46,63.6289908 46,61.9376889 L46,37.996978 C46.0002583,36.3054156 44.6400861,34.9344065 42.9621529,34.9344065 Z M33.0689343,31.0247518 L34.9315823,31.0247518 C36.6846932,31.4494652 37.993197,33.0389504 37.993197,34.9344065 L30.0073197,34.9344065 C30.0073197,33.03869 31.3158235,31.4492048 33.0689343,31.0247518 Z M38.2238967,57.528065 L29.7768784,57.528065 C28.3490205,57.528065 27.1911302,56.3612099 27.1911302,54.9217154 C27.1911302,53.4822208 28.3490205,52.3153657 29.7768784,52.3153657 L38.2238967,52.3153657 C39.6517546,52.3153657 40.8096448,53.4822208 40.8096448,54.9217154 C40.8096448,56.3612099 39.6517546,57.528065 38.2238967,57.528065 Z" id="Shape"></path>
                <circle id="Oval" cx="102" cy="11" r="11"></circle>
                <path d="M129,38.5360672 C128.964959,31.6235168 123.145286,26 116.027515,26 L109,26 C110.892462,27.4717972 112.331254,29.4866485 113.066312,31.807066 C113.091265,31.8157067 113.115422,31.8264421 113.140375,31.8353446 C116.127328,32.8374026 118.31737,35.7000887 118.204815,38.9900961 L118.204815,77.676027 C118.204815,80.6164793 120.621561,83 123.602408,83 C126.583255,83 129,80.6162175 129,77.676027 L129,38.5627748 C129,38.5538722 129,38.5449697 129,38.5360672 Z" id="Shape"></path>
                <path d="M111.000537,69.1185946 L92.9992031,69.1185946 L92.9992031,69.1183331 C91.0519839,69.1183331 89.2622547,68.3055209 88,67 C88,67.0211833 88,68.3178124 88,127.618325 C88,131.142604 90.8062788,133.999477 94.3027113,133.999477 C97.7991438,133.999477 100.633444,131.142604 100.633444,127.618325 L100.633444,76.6143556 L103.366556,76.6143556 L103.366556,127.618848 C103.366556,131.143127 106.200856,134 109.697289,134 C113.193721,134 116,131.143127 116,127.618848 C116,69.7232349 116,67 116,67 C114.736967,68.3060439 112.947757,69.1185946 111.000537,69.1185946 Z" id="Shape"></path>
                <path d="M87.9726573,26.0002618 C80.8545261,26.0002618 75.0350411,31.6237528 75,38.5362714 C75,38.5451739 75,38.5540764 75,38.5629789 L75,77.6760515 C75,80.6162284 77.4167773,83 80.3976639,83 C83.3785506,83 85.7953278,80.6162284 85.7953278,77.6760515 L85.7953278,39.6200182 C85.3496151,36.0564054 87.6687019,32.8211372 90.9389435,31.791329 C91.6758694,29.47773 93.1120255,27.4686484 95,26 L87.9726573,26 L87.9726573,26.0002618 Z" id="Shape"></path>
                <path d="M110.962153,34.9344065 L109.871948,34.9344065 C109.871948,33.5134004 109.49761,32.1796284 108.845813,31.0247518 C107.490807,28.6238582 104.931152,27 102.000258,27 C99.0693649,26.9997396 96.5097094,28.6238582 95.154704,31.0247518 C94.5029064,32.1796284 94.12831,33.5134004 94.12831,34.9344065 L93.0381055,34.9344065 C91.3601722,34.9344065 90,36.3054156 90,37.9967176 L90,61.9376889 C90,63.6289908 91.3601722,65 93.0381055,65 L110.961895,65 C112.639828,65 114,63.6289908 114,61.9376889 L114,37.9967176 C114.000258,36.3054156 112.640086,34.9344065 110.962153,34.9344065 Z M101.069193,31.0247518 L102.931324,31.0247518 C104.684693,31.4492048 105.993197,33.03869 105.993197,34.9344065 L98.0073197,34.9344065 C98.0073197,33.03869 99.3155651,31.4492048 101.069193,31.0247518 Z M106.223638,57.528065 L97.7763617,57.528065 C96.3482454,57.528065 95.1906136,56.3612099 95.1906136,54.9217154 C95.1906136,53.4822208 96.3482454,52.3153657 97.7763617,52.3153657 L106.223638,52.3153657 C107.651755,52.3153657 108.809386,53.4822208 108.809386,54.9217154 C108.809386,56.3612099 107.652013,57.528065 106.223638,57.528065 Z" id="Shape"></path>
            </g>
        </g>
    </g>
</svg>