<svg xmlns="http://www.w3.org/2000/svg" data-name="Layer 1" viewBox="0 0 52 65" x="0px" y="0px"><title>business_icons_tnp</title><path d="M51,17.73A14.48,14.48,0,0,0,46.56,7.27a15.45,15.45,0,0,0-20.71-.53,15.37,15.37,0,0,0-20.61.66A14.17,14.17,0,0,0,1,17.67,15.51,15.51,0,0,0,5.49,28.58a4.27,4.27,0,0,0,1.1,4.5,4.57,4.57,0,0,0,3.2,1.28,4.69,4.69,0,0,0,.52,0,4,4,0,0,0,1.29,3.62,4.58,4.58,0,0,0,3.2,1.28,4.69,4.69,0,0,0,.52,0,4,4,0,0,0,1.29,3.62,4.57,4.57,0,0,0,3.2,1.28A4.68,4.68,0,0,0,20.33,44a4.43,4.43,0,0,0,0,.45A4.58,4.58,0,0,0,28,47.72l3-3a4.4,4.4,0,0,0,.85-1.19A4.59,4.59,0,0,0,36.2,42.4a4,4,0,0,0,1.29-3.6c0.13,0,.26,0,0.39,0a4.61,4.61,0,0,0,3.22-1.3,4.05,4.05,0,0,0,1.28-3.67,4.34,4.34,0,0,0,3.79-1.25,4.32,4.32,0,0,0,.91-5A14.45,14.45,0,0,0,51,17.73ZM8,31.64a2.38,2.38,0,0,1,0-3.42l3-3a2.61,2.61,0,0,1,3.61,0,2.38,2.38,0,0,1,0,3.42l-3,3A2.61,2.61,0,0,1,8,31.64Zm5,4.86a2.38,2.38,0,0,1,0-3.42l3-3a2.6,2.6,0,0,1,3.61,0,2.38,2.38,0,0,1,0,3.42l-3,3A2.61,2.61,0,0,1,13,36.5Zm8.61,4.86a2.61,2.61,0,0,1-3.61,0,2.38,2.38,0,0,1,0-3.42l3-3a2.61,2.61,0,0,1,3.61,0,2.38,2.38,0,0,1,0,3.42Zm8.1,2-3,3a2.61,2.61,0,0,1-3.61,0,2.53,2.53,0,0,1-.76-1.8A2.32,2.32,0,0,1,23,42.8l3-3a2.69,2.69,0,0,1,3.67.06A2.38,2.38,0,0,1,29.69,43.33ZM44.74,31.21a2.59,2.59,0,0,1-3.58,0A1,1,0,0,0,40.81,31l-6.74-6.55a1,1,0,0,0-1.39,1.43l7,6.82a2.36,2.36,0,0,1,0,3.42,2.59,2.59,0,0,1-3.27.25c-0.07-.08-0.13-0.17-0.21-0.25l-7-6.82a1,1,0,1,0-1.39,1.43l6.71,6.52a1,1,0,0,0,.21.3c0.1,0.1.21,0.17,0.32,0.25a2.34,2.34,0,0,1,.51,1.45A2.38,2.38,0,0,1,34.78,41a2.58,2.58,0,0,1-2.36.64h0a4.36,4.36,0,0,0-1.33-3.15,4.73,4.73,0,0,0-3.78-1.26A4,4,0,0,0,26,33.55a4.58,4.58,0,0,0-3.71-1.24A4,4,0,0,0,21,28.69a4.58,4.58,0,0,0-3.71-1.24A4,4,0,0,0,16,23.83a4.62,4.62,0,0,0-6.39,0l-3,3,0,0A13.51,13.51,0,0,1,3,17.67,12.19,12.19,0,0,1,6.64,8.83,13.38,13.38,0,0,1,24.38,8.1l-6.1,6a4.23,4.23,0,0,0-.18,6.32,4.6,4.6,0,0,0,6.37,0L31,14.07l7,7h0l6.77,6.72A2.36,2.36,0,0,1,44.74,31.21ZM45.84,26L39.4,19.64,31.7,12a1,1,0,0,0-.15-0.1,1,1,0,0,0-.18-0.12,1,1,0,0,0-.17,0,0.53,0.53,0,0,0-.38,0,1,1,0,0,0-.19,0,1,1,0,0,0-.16.1,0.94,0.94,0,0,0-.16.11l-7.23,7a2.59,2.59,0,0,1-3.6,0,2.24,2.24,0,0,1-.7-1.68,2.33,2.33,0,0,1,.86-1.71l6.93-6.75h0A13.45,13.45,0,0,1,45.17,8.7,12.52,12.52,0,0,1,45.84,26Z"/><text x="0" y="67" fill="#000000" font-size="5px" font-weight="bold" font-family="'Helvetica Neue', Helvetica, Arial-Unicode, Arial, Sans-serif">Created by Hare Krishna</text><text x="0" y="72" fill="#000000" font-size="5px" font-weight="bold" font-family="'Helvetica Neue', Helvetica, Arial-Unicode, Arial, Sans-serif">from the Noun Project</text></svg>